<?xml version="1.0" encoding="UTF-8"?>
<!DOCTYPE svg PUBLIC "-//W3C//DTD SVG 1.1//EN" "http://www.w3.org/Graphics/SVG/1.1/DTD/svg11.dtd">
<!-- Creator: CorelDRAW 2020 (64-Bit) -->
<svg xmlns="http://www.w3.org/2000/svg" xml:space="preserve" width="297mm" height="210mm" version="1.1" style="shape-rendering:geometricPrecision; text-rendering:geometricPrecision; image-rendering:optimizeQuality; fill-rule:evenodd; clip-rule:evenodd"
viewBox="0 0 29700 21000"
 xmlns:xlink="http://www.w3.org/1999/xlink"
 xmlns:xodm="http://www.corel.com/coreldraw/odm/2003">
 <defs>
  <style type="text/css">
   <![CDATA[
    .fil0 {fill:url(#id0)}
   ]]>
  </style>
  <linearGradient id="id0" gradientUnits="userSpaceOnUse" x1="7940.93" y1="17737.07" x2="21920.51" y2="3436.05">
   <stop offset="0" style="stop-opacity:1; stop-color:#FF7A00"/>
   <stop offset="0.25098" style="stop-opacity:1; stop-color:#FF7A00"/>
   <stop offset="0.74902" style="stop-opacity:1; stop-color:#0055FF"/>
   <stop offset="1" style="stop-opacity:1; stop-color:#0055FF"/>
  </linearGradient>
 </defs>
 <g id="Capa_x0020_1">
  <metadata id="CorelCorpID_0Corel-Layer"/>
  <path class="fil0" d="M14849.47 507.13c5522.82,0 10000,4477.18 10000,10000 0,5522.82 -4477.18,10000 -10000,10000 -5522.82,0 -10000,-4477.18 -10000,-10000 0,-5522.82 4477.18,-10000 10000,-10000zm-2216.88 13834.63c1673.34,988.28 3864.66,763.48 5302.33,-674.19 1704.07,-1704.08 1704.07,-4466.79 0,-6170.87l-3085.45 -3085.45 -2295.62 2292.86 0 0c-849.64,-849.69 -849.64,-2235.77 0,-3085.45l2294.24 -2294.24 4629.56 4629.56c2555.97,2555.97 2556.05,6700.22 0,9256.35 -2556.06,2556.01 -6700.27,2556.05 -9256.36,0 -2556.01,-2556.09 -2556.01,-6700.34 0,-9256.35 799.12,799.08 1031.35,1909.95 598.38,2951.64 -521.69,1255.31 -431.54,2704.91 270.27,3893.3l2988.19 -2988.15 0.04 0.08c848.5,848.5 848.5,2236.83 0,3085.29l-1445.58 1445.62z"/>
 </g>
</svg>
