<?xml version="1.0" encoding="UTF-8"?>
<!DOCTYPE svg PUBLIC "-//W3C//DTD SVG 1.1//EN" "http://www.w3.org/Graphics/SVG/1.1/DTD/svg11.dtd">
<!-- Creator: CorelDRAW 2020 (64-Bit) -->
<svg xmlns="http://www.w3.org/2000/svg" xml:space="preserve" width="263.917mm" height="39.9999mm" version="1.1" style="shape-rendering:geometricPrecision; text-rendering:geometricPrecision; image-rendering:optimizeQuality; fill-rule:evenodd; clip-rule:evenodd"
viewBox="0 0 26873.56 4073.03"
 xmlns:xlink="http://www.w3.org/1999/xlink"
 xmlns:xodm="http://www.corel.com/coreldraw/odm/2003">
 <defs>
  <style type="text/css">
   <![CDATA[
    .fil2 {fill:#0055FF;fill-rule:nonzero}
    .fil1 {fill:#333333;fill-rule:nonzero}
    .fil0 {fill:url(#id0)}
   ]]>
  </style>
  <linearGradient id="id0" gradientUnits="userSpaceOnUse" x1="494.09" y1="3578.93" x2="2879.81" y2="1193.22">
   <stop offset="0" style="stop-opacity:1; stop-color:#FF7A00"/>
   <stop offset="0.25098" style="stop-opacity:1; stop-color:#FD7A02"/>
   <stop offset="0.74902" style="stop-opacity:1; stop-color:#0456FB"/>
   <stop offset="1" style="stop-opacity:1; stop-color:#0055FF"/>
  </linearGradient>
 </defs>
 <g id="Capa_x0020_1">
  <metadata id="CorelCorpID_0Corel-Layer"/>
  <g id="_2711262910624">
   <g>
    <path class="fil0" d="M1115.57 3355.07c431.28,254.72 996.07,196.78 1366.62,-173.77 439.21,-439.21 439.21,-1151.26 0,-1590.47l-795.24 -795.24 -591.67 590.96 0 0c-219,-219 -219,-576.24 0,-795.24l591.31 -591.31 1193.22 1193.22c658.77,658.77 658.79,1726.92 0,2385.71 -658.79,658.79 -1726.92,658.8 -2385.71,0 -658.79,-658.78 -658.79,-1726.93 0,-2385.71 205.95,205.95 265.81,492.27 154.22,760.75 -134.46,323.54 -111.22,697.16 69.67,1003.45l770.16 -770.16 0.01 0.01c218.69,218.69 218.69,576.53 0,795.22l-372.58 372.58z"/>
   </g>
   <g>
    <path class="fil1" d="M4040.57 1867.21c-48.6,3.24 -85.87,-4.04 -111.78,-21.87 -25.92,-17.82 -38.89,-44.55 -38.89,-80.19 0,-63.18 34.83,-97.2 104.49,-102.06l75.33 -4.87c76.15,-3.24 132.85,-26.32 170.11,-69.25 37.26,-42.93 55.89,-110.57 55.89,-202.91l0 -1129.99c0,-37.26 11.74,-67.63 35.23,-91.12 23.49,-23.49 53.87,-35.24 91.13,-35.24 38.88,0 69.66,11.75 92.34,35.24 22.69,23.49 34.02,53.87 34.02,91.12l0 1129.99c0,152.28 -36.05,267.71 -108.14,346.28 -72.09,78.58 -180.22,121.91 -324.41,130.01l-75.33 4.86zm1375.42 -1227.19c157.14,0 274.19,39.69 351.15,119.08 76.95,79.38 115.43,200.08 115.43,362.08l0 629.39c0,37.26 -10.54,66.01 -31.6,86.27 -21.06,20.25 -50.22,30.37 -87.48,30.37 -35.64,0 -64,-10.53 -85.06,-31.59 -21.06,-21.07 -31.59,-49.42 -31.59,-85.06l0 -89.91c-30.78,68.04 -76.55,120.29 -137.3,156.74 -60.75,36.45 -131.63,54.68 -212.63,54.68 -77.76,0 -148.65,-15.8 -212.63,-47.39 -63.99,-31.6 -114.62,-74.93 -151.88,-130.01 -37.26,-55.08 -55.89,-117.46 -55.89,-187.12 -1.62,-87.48 20.25,-155.93 65.62,-205.34 45.36,-49.41 119.08,-85.06 221.14,-106.92 102.06,-21.87 243.82,-32.81 425.27,-32.81l55.89 0 0 -70.47c0,-90.73 -18.63,-156.33 -55.89,-196.84 -37.26,-40.5 -97.2,-60.75 -179.82,-60.75 -56.71,0 -110.17,7.29 -160.39,21.87 -50.22,14.58 -105.31,35.64 -165.24,63.18 -43.74,24.3 -74.53,36.44 -92.35,36.44 -24.3,0 -44.14,-8.91 -59.54,-26.73 -15.39,-17.82 -23.08,-40.5 -23.08,-68.04 0,-24.3 6.88,-45.76 20.65,-64.39 13.78,-18.63 36.05,-36.86 66.83,-54.68 56.71,-30.78 123.13,-55.48 199.27,-74.12 76.14,-18.62 149.85,-27.94 221.14,-27.94zm-75.33 1049.79c89.1,0 162.01,-30.37 218.7,-91.13 56.71,-60.75 85.06,-138.91 85.06,-234.49l0 -63.18 -43.74 0c-126.37,0 -223.57,5.67 -291.61,17 -68.04,11.34 -116.64,30.37 -145.8,57.11 -29.16,26.73 -43.74,65.2 -43.74,115.42 0,58.33 21.07,106.12 63.18,143.38 42.13,37.26 94.78,55.89 157.96,55.89zm1720.49 -972.03c9.72,-24.31 23.9,-42.13 42.52,-53.47 18.63,-11.33 38.48,-17 59.54,-17 30.78,0 57.92,10.53 81.41,31.59 23.49,21.07 35.24,46.18 35.24,75.34 0,16.2 -3.25,31.59 -9.72,46.17l-464.14 984.18c-11.34,25.92 -28.76,45.77 -52.25,59.54 -23.49,13.77 -48.19,20.66 -74.12,20.66 -25.92,0 -50.63,-6.89 -74.12,-20.66 -23.49,-13.77 -40.9,-33.61 -52.25,-59.54l-464.14 -984.18c-6.48,-12.96 -9.72,-28.35 -9.72,-46.17 0,-29.16 12.96,-54.27 38.89,-75.34 25.91,-21.06 55.08,-31.59 87.48,-31.59 46.98,0 81.82,22.68 104.49,68.04l376.66 835.95 374.23 -833.52zm580.79 1149.42c-35.65,0 -65.21,-9.71 -88.7,-29.16 -23.49,-19.44 -35.23,-48.6 -35.23,-87.48l0 -986.61c0,-38.88 11.74,-68.45 35.23,-88.7 23.49,-20.24 53.05,-30.37 88.7,-30.37 35.64,0 64.8,10.13 87.48,30.37 22.68,20.25 34.02,49.82 34.02,88.7l0 986.61c0,38.88 -11.34,68.04 -34.02,87.48 -22.68,19.45 -51.84,29.16 -87.48,29.16zm0 -1460.47c-46.98,0 -84.25,-12.96 -111.78,-38.89 -27.54,-25.91 -41.31,-59.94 -41.31,-102.06 0,-42.13 13.77,-75.74 41.31,-100.85 27.53,-25.11 64.8,-37.67 111.78,-37.67 45.35,0 82.21,12.56 110.56,37.67 28.35,25.11 42.53,58.72 42.53,100.85 0,42.12 -13.78,76.15 -41.31,102.06 -27.54,25.92 -64.8,38.89 -111.78,38.89zm1392.43 1149.42c22.68,0 41.31,8.91 55.89,26.73 14.58,17.82 21.87,40.51 21.87,68.04 0,46.98 -29.16,86.67 -87.49,119.08 -56.7,32.4 -118.67,57.51 -185.9,75.33 -67.23,17.83 -131.62,26.74 -193.18,26.74 -187.93,0 -336.16,-54.68 -444.7,-164.03 -108.55,-109.36 -162.82,-258.81 -162.82,-448.35 0,-121.51 23.9,-229.24 71.69,-323.21 47.8,-93.96 115.03,-166.86 201.7,-218.7 86.67,-51.84 185.1,-77.76 295.25,-77.76 158.77,0 284.32,51.04 376.66,153.1 92.35,102.06 138.51,239.77 138.51,413.11 0,64.8 -29.16,97.2 -87.48,97.2l-750.89 0c16.2,251.11 136.89,376.66 362.08,376.66 59.94,0 111.78,-8.1 155.52,-24.3 43.74,-16.2 89.91,-37.27 138.51,-63.18 4.87,-3.24 18.23,-10.13 40.1,-20.66 21.87,-10.53 40.1,-15.79 54.68,-15.79zm-422.83 -736.31c-93.96,0 -169.3,29.97 -226,89.91 -56.7,59.94 -90.72,144.19 -102.06,252.73l626.96 0c-4.87,-110.17 -32.81,-194.81 -83.84,-253.94 -51.02,-59.13 -122.72,-88.7 -215.06,-88.7zm1402.15 -174.97c77.76,-4.86 116.64,28.36 116.64,99.64 0,35.64 -8.91,62.37 -26.73,80.19 -17.82,17.82 -48.6,28.36 -92.35,31.6l-72.9 7.29c-102.07,9.71 -177.8,45.36 -227.21,106.92 -49.42,61.56 -74.12,136.09 -74.12,223.57l0 556.49c0,38.88 -11.34,68.04 -34.02,87.48 -22.68,19.45 -51.84,29.16 -87.48,29.16 -35.65,0 -65.21,-9.71 -88.7,-29.16 -23.49,-19.44 -35.23,-48.6 -35.23,-87.48l0 -989.05c0,-37.26 11.74,-66.01 35.23,-86.27 23.49,-20.24 53.05,-30.37 88.7,-30.37 32.4,0 59.54,10.13 81.4,30.37 21.87,20.25 32.81,48.2 32.81,83.84l0 116.64c32.4,-71.28 79.38,-125.55 140.95,-162.82 61.56,-37.26 131.22,-59.13 208.99,-65.61l34.02 -2.43zm1061.94 1210.18c-38.88,0 -69.25,-10.94 -91.12,-32.81 -21.87,-21.87 -32.81,-51.43 -32.81,-88.7l0 -1470.19c0,-37.26 10.94,-66.83 32.81,-88.69 21.87,-21.87 52.25,-32.81 91.12,-32.81l894.28 0c37.26,0 66.01,8.91 86.27,26.73 20.24,17.82 30.37,42.93 30.37,75.33 0,32.4 -10.13,57.1 -30.37,74.12 -20.25,17 -49.01,25.52 -86.27,25.52l-772.77 0 0 539.47 724.17 0c37.26,0 66.01,8.91 86.27,26.73 20.24,17.82 30.37,42.93 30.37,75.33 0,32.4 -10.13,57.51 -30.37,75.33 -20.25,17.83 -49.01,26.74 -86.27,26.74l-724.17 0 0 566.2 772.77 0c77.75,0 116.64,33.22 116.64,99.64 0,32.4 -10.13,57.51 -30.37,75.33 -20.25,17.82 -49.01,26.73 -86.27,26.73l-894.28 0zm1905.18 -1215.04c102.06,0 193.18,25.92 273.38,77.76 80.19,51.84 142.57,124.74 187.12,218.7 44.55,93.96 66.83,202.51 66.83,325.63 0,121.51 -21.87,228.43 -65.62,320.77 -43.73,92.35 -105.71,163.62 -185.89,213.84 -80.2,50.22 -172.14,75.34 -275.82,75.34 -89.11,0 -167.68,-19.04 -235.72,-57.11 -68.04,-38.07 -119.89,-92.74 -155.53,-164.03l0 541.91c0,34.02 -10.94,61.16 -32.81,81.41 -21.86,20.25 -50.62,30.37 -86.27,30.37 -37.26,0 -67.63,-10.53 -91.12,-31.59 -23.49,-21.06 -35.23,-49.42 -35.23,-85.06l0 -1424.03c0,-35.64 11.33,-64.39 34.02,-86.27 22.68,-21.87 52.64,-32.81 89.91,-32.81 35.64,0 64.8,10.94 87.48,32.81 22.68,21.87 34.02,50.63 34.02,86.27l0 99.64c35.64,-71.29 87.49,-126.37 155.53,-165.24 68.04,-38.89 146.61,-58.33 235.72,-58.33zm-58.33 1037.65c106.93,0 189.55,-36.05 247.87,-108.14 58.32,-72.09 87.48,-174.56 87.48,-307.41 0,-134.46 -29.57,-238.95 -88.7,-313.47 -59.13,-74.53 -141.34,-111.78 -246.65,-111.78 -106.92,0 -189.14,36.44 -246.65,109.35 -57.51,72.9 -86.27,176.59 -86.27,311.05 0,134.46 28.76,238.15 86.27,311.05 57.51,72.91 139.74,109.36 246.65,109.36zm981.75 189.54c-35.65,0 -65.21,-9.71 -88.7,-29.16 -23.49,-19.44 -35.23,-48.6 -35.23,-87.48l0 -986.61c0,-38.88 11.74,-68.45 35.23,-88.7 23.49,-20.24 53.05,-30.37 88.7,-30.37 35.64,0 64.8,10.13 87.48,30.37 22.68,20.25 34.02,49.82 34.02,88.7l0 986.61c0,38.88 -11.34,68.04 -34.02,87.48 -22.68,19.45 -51.84,29.16 -87.48,29.16zm0 -1460.47c-46.98,0 -84.25,-12.96 -111.78,-38.89 -27.54,-25.91 -41.31,-59.94 -41.31,-102.06 0,-42.13 13.77,-75.74 41.31,-100.85 27.53,-25.11 64.8,-37.67 111.78,-37.67 45.35,0 82.21,12.56 110.56,37.67 28.35,25.11 42.53,58.72 42.53,100.85 0,42.12 -13.78,76.15 -41.31,102.06 -27.54,25.92 -64.8,38.89 -111.78,38.89zm1023.06 -77.76c-81,6.48 -140.95,31.99 -179.82,76.54 -38.88,44.56 -58.33,109.76 -58.33,195.63l0 68.04 240.58 0c34.02,0 60.34,8.5 78.98,25.52 18.62,17 27.94,40.09 27.94,69.25 0,29.16 -9.32,52.25 -27.94,69.26 -18.63,17 -44.96,25.51 -78.98,25.51l-240.58 0 0 889.41c0,38.89 -11.74,68.45 -35.23,88.7 -23.49,20.25 -53.06,30.37 -88.7,30.37 -35.64,0 -64.8,-10.12 -87.48,-30.37 -22.69,-20.25 -34.02,-49.81 -34.02,-88.7l0 -889.41 -145.8 0c-34.02,0 -60.35,-8.5 -78.98,-25.51 -18.63,-17.02 -27.95,-40.1 -27.95,-69.26 0,-29.16 9.32,-52.25 27.95,-69.25 18.62,-17.02 44.96,-25.52 78.98,-25.52l145.8 0 0 -31.6c0,-149.04 38.07,-266.09 114.21,-351.15 76.15,-85.05 183.88,-132.43 323.21,-142.16l63.18 -4.86c51.84,-3.24 89.5,2.43 113,17.02 23.49,14.58 35.23,38.06 35.23,70.46 0,56.71 -34.02,89.11 -102.06,97.2l-63.18 4.87zm758.19 311.05c157.14,0 274.19,39.69 351.15,119.08 76.95,79.38 115.43,200.08 115.43,362.08l0 629.39c0,37.26 -10.54,66.01 -31.6,86.27 -21.06,20.25 -50.22,30.37 -87.48,30.37 -35.64,0 -64,-10.53 -85.06,-31.59 -21.06,-21.07 -31.59,-49.42 -31.59,-85.06l0 -89.91c-30.78,68.04 -76.55,120.29 -137.3,156.74 -60.75,36.45 -131.63,54.68 -212.63,54.68 -77.76,0 -148.65,-15.8 -212.63,-47.39 -63.99,-31.6 -114.62,-74.93 -151.88,-130.01 -37.26,-55.08 -55.89,-117.46 -55.89,-187.12 -1.62,-87.48 20.25,-155.93 65.62,-205.34 45.36,-49.41 119.08,-85.06 221.14,-106.92 102.06,-21.87 243.82,-32.81 425.27,-32.81l55.89 0 0 -70.47c0,-90.73 -18.63,-156.33 -55.89,-196.84 -37.26,-40.5 -97.2,-60.75 -179.82,-60.75 -56.71,0 -110.17,7.29 -160.39,21.87 -50.22,14.58 -105.31,35.64 -165.24,63.18 -43.74,24.3 -74.53,36.44 -92.35,36.44 -24.3,0 -44.14,-8.91 -59.54,-26.73 -15.39,-17.82 -23.08,-40.5 -23.08,-68.04 0,-24.3 6.88,-45.76 20.65,-64.39 13.78,-18.63 36.05,-36.86 66.83,-54.68 56.71,-30.78 123.13,-55.48 199.27,-74.12 76.14,-18.62 149.85,-27.94 221.14,-27.94zm-75.33 1049.79c89.1,0 162.01,-30.37 218.7,-91.13 56.71,-60.75 85.06,-138.91 85.06,-234.49l0 -63.18 -43.74 0c-126.37,0 -223.57,5.67 -291.61,17 -68.04,11.34 -116.64,30.37 -145.8,57.11 -29.16,26.73 -43.74,65.2 -43.74,115.42 0,58.33 21.07,106.12 63.18,143.38 42.13,37.26 94.78,55.89 157.96,55.89zm1516.36 -1049.79c283.51,0 425.27,159.57 425.27,478.72l0 631.82c0,37.26 -10.94,66.01 -32.81,86.27 -21.86,20.25 -52.25,30.37 -91.12,30.37 -37.26,0 -66.83,-10.53 -88.7,-31.59 -21.87,-21.07 -32.8,-49.42 -32.8,-85.06l0 -619.67c0,-100.44 -19.85,-174.15 -59.54,-221.14 -39.69,-46.98 -101.66,-70.47 -185.9,-70.47 -98.82,0 -178.21,30.78 -238.15,92.35 -59.93,61.56 -89.91,144.19 -89.91,247.86l0 571.07c0,35.64 -10.94,63.99 -32.81,85.06 -21.86,21.06 -51.43,31.59 -88.69,31.59 -37.27,0 -67.24,-10.53 -89.91,-31.59 -22.69,-21.07 -34.02,-49.42 -34.02,-85.06l0 -989.05c0,-34.02 11.74,-61.96 35.23,-83.83 23.49,-21.87 53.05,-32.81 88.7,-32.81 35.64,0 63.99,10.53 85.05,31.6 21.07,21.06 31.6,48.6 31.6,82.62l0 99.63c38.88,-71.28 93.15,-125.55 162.81,-162.81 69.67,-37.26 148.24,-55.89 235.72,-55.89zm884.55 1227.19c-35.65,0 -65.21,-9.71 -88.7,-29.16 -23.49,-19.44 -35.23,-48.6 -35.23,-87.48l0 -986.61c0,-38.88 11.74,-68.45 35.23,-88.7 23.49,-20.24 53.05,-30.37 88.7,-30.37 35.64,0 64.8,10.13 87.48,30.37 22.68,20.25 34.02,49.82 34.02,88.7l0 986.61c0,38.88 -11.34,68.04 -34.02,87.48 -22.68,19.45 -51.84,29.16 -87.48,29.16zm0 -1460.47c-46.98,0 -84.25,-12.96 -111.78,-38.89 -27.54,-25.91 -41.31,-59.94 -41.31,-102.06 0,-42.13 13.77,-75.74 41.31,-100.85 27.53,-25.11 64.8,-37.67 111.78,-37.67 45.35,0 82.21,12.56 110.56,37.67 28.35,25.11 42.53,58.72 42.53,100.85 0,42.12 -13.78,76.15 -41.31,102.06 -27.54,25.92 -64.8,38.89 -111.78,38.89zm979.31 1465.34c-116.64,0 -219.11,-25.12 -307.4,-75.34 -88.29,-50.22 -156.33,-121.91 -204.13,-215.06 -47.79,-93.15 -71.69,-201.29 -71.69,-324.42 0,-124.75 23.9,-233.69 71.69,-326.84 47.8,-93.16 115.84,-164.85 204.13,-215.07 88.29,-50.22 190.76,-75.33 307.4,-75.33 116.65,0 219.12,25.11 307.41,75.33 88.28,50.22 156.33,121.91 204.12,215.07 47.8,93.15 71.69,202.09 71.69,326.84 0,123.13 -23.89,231.27 -71.69,324.42 -47.79,93.15 -115.84,164.84 -204.12,215.06 -88.29,50.22 -190.76,75.34 -307.41,75.34zm0 -194.41c108.55,0 191.58,-35.65 249.09,-106.93 57.51,-71.28 86.27,-175.77 86.27,-313.48 0,-136.08 -29.16,-240.17 -87.48,-312.26 -58.33,-72.09 -140.95,-108.14 -247.87,-108.14 -106.92,0 -189.54,36.05 -247.86,108.14 -58.33,72.09 -87.48,176.18 -87.48,312.26 0,137.71 28.76,242.2 86.27,313.48 57.51,71.28 140.54,106.93 249.08,106.93zm1647.6 177.39c-37.26,0 -66.83,-10.53 -88.7,-31.59 -21.87,-21.07 -32.81,-49.42 -32.81,-85.06l0 -1482.35c0,-37.26 11.34,-67.63 34.02,-91.12 22.69,-23.49 52.65,-35.24 89.91,-35.24 38.89,0 69.67,11.34 92.35,34.03 22.69,22.68 34.02,53.46 34.02,92.34l0 1390.01 738.75 0c37.26,0 66.01,8.91 86.27,26.73 20.25,17.82 30.37,43.74 30.37,77.76 0,34.02 -10.12,59.94 -30.37,77.76 -20.25,17.82 -49.01,26.73 -86.27,26.73l-867.54 0zm1688.89 17.02c-116.64,0 -219.11,-25.12 -307.4,-75.34 -88.29,-50.22 -156.33,-121.91 -204.13,-215.06 -47.79,-93.15 -71.69,-201.29 -71.69,-324.42 0,-124.75 23.9,-233.69 71.69,-326.84 47.8,-93.16 115.84,-164.85 204.13,-215.07 88.29,-50.22 190.76,-75.33 307.4,-75.33 116.65,0 219.12,25.11 307.41,75.33 88.28,50.22 156.33,121.91 204.12,215.07 47.8,93.15 71.69,202.09 71.69,326.84 0,123.13 -23.89,231.27 -71.69,324.42 -47.79,93.15 -115.84,164.84 -204.12,215.06 -88.29,50.22 -190.76,75.34 -307.41,75.34zm0 -194.41c108.55,0 191.58,-35.65 249.09,-106.93 57.51,-71.28 86.27,-175.77 86.27,-313.48 0,-136.08 -29.16,-240.17 -87.48,-312.26 -58.33,-72.09 -140.95,-108.14 -247.87,-108.14 -106.92,0 -189.54,36.05 -247.86,108.14 -58.33,72.09 -87.48,176.18 -87.48,312.26 0,137.71 28.76,242.2 86.27,313.48 57.51,71.28 140.54,106.93 249.08,106.93zm51.04 -1168.87c-12.96,11.34 -28.35,17 -46.17,17 -17.82,0 -33.62,-6.48 -47.39,-19.44 -13.77,-12.96 -20.66,-28.35 -20.66,-46.17 0,-16.2 5.67,-30.78 17.02,-43.74l262.45 -342.63c32.4,-43.74 69.66,-65.62 111.78,-65.62 30.78,0 56.71,10.53 77.76,31.59 21.06,21.07 31.59,46.18 31.59,75.34 0,37.26 -19.44,72.09 -58.32,104.49l-328.06 289.18zm1441.04 131.22c102.06,0 193.18,25.92 273.38,77.76 80.19,51.84 142.57,124.74 187.12,218.7 44.55,93.96 66.83,202.51 66.83,325.63 0,121.51 -21.87,228.43 -65.62,320.77 -43.73,92.35 -105.71,163.62 -185.89,213.84 -80.2,50.22 -172.14,75.34 -275.82,75.34 -89.11,0 -167.68,-19.04 -235.72,-57.11 -68.04,-38.07 -119.89,-92.74 -155.53,-164.03l0 541.91c0,34.02 -10.94,61.16 -32.81,81.41 -21.86,20.25 -50.62,30.37 -86.27,30.37 -37.26,0 -67.63,-10.53 -91.12,-31.59 -23.49,-21.06 -35.23,-49.42 -35.23,-85.06l0 -1424.03c0,-35.64 11.33,-64.39 34.02,-86.27 22.68,-21.87 52.64,-32.81 89.91,-32.81 35.64,0 64.8,10.94 87.48,32.81 22.68,21.87 34.02,50.63 34.02,86.27l0 99.64c35.64,-71.29 87.49,-126.37 155.53,-165.24 68.04,-38.89 146.61,-58.33 235.72,-58.33zm-58.33 1037.65c106.93,0 189.55,-36.05 247.87,-108.14 58.32,-72.09 87.48,-174.56 87.48,-307.41 0,-134.46 -29.57,-238.95 -88.7,-313.47 -59.13,-74.53 -141.34,-111.78 -246.65,-111.78 -106.92,0 -189.14,36.44 -246.65,109.35 -57.51,72.9 -86.27,176.59 -86.27,311.05 0,134.46 28.76,238.15 86.27,311.05 57.51,72.91 139.74,109.36 246.65,109.36zm1786.11 -121.51c22.68,0 41.31,8.91 55.89,26.73 14.58,17.82 21.87,40.51 21.87,68.04 0,46.98 -29.16,86.67 -87.49,119.08 -56.7,32.4 -118.67,57.51 -185.9,75.33 -67.23,17.83 -131.62,26.74 -193.18,26.74 -187.93,0 -336.16,-54.68 -444.7,-164.03 -108.55,-109.36 -162.82,-258.81 -162.82,-448.35 0,-121.51 23.9,-229.24 71.69,-323.21 47.8,-93.96 115.03,-166.86 201.7,-218.7 86.67,-51.84 185.1,-77.76 295.25,-77.76 158.77,0 284.32,51.04 376.66,153.1 92.35,102.06 138.51,239.77 138.51,413.11 0,64.8 -29.16,97.2 -87.48,97.2l-750.89 0c16.2,251.11 136.89,376.66 362.08,376.66 59.94,0 111.78,-8.1 155.52,-24.3 43.74,-16.2 89.91,-37.27 138.51,-63.18 4.87,-3.24 18.23,-10.13 40.1,-20.66 21.87,-10.53 40.1,-15.79 54.68,-15.79zm-422.83 -736.31c-93.96,0 -169.3,29.97 -226,89.91 -56.7,59.94 -90.72,144.19 -102.06,252.73l626.96 0c-4.87,-110.17 -32.81,-194.81 -83.84,-253.94 -51.02,-59.13 -122.72,-88.7 -215.06,-88.7zm1640.29 845.66c35.64,0 62.78,8.51 81.41,25.52 18.63,17.02 27.94,40.1 27.94,69.26 0,29.15 -9.31,52.25 -27.94,69.25 -18.63,17.02 -45.77,25.52 -81.41,25.52l-831.08 0c-35.64,0 -64,-10.12 -85.06,-30.37 -21.06,-20.25 -31.59,-45.77 -31.59,-76.55 0,-30.78 12.15,-60.75 36.44,-89.91l675.56 -799.5 -609.95 0c-34.02,0 -60.35,-8.5 -78.98,-25.51 -18.63,-17.02 -27.95,-40.1 -27.95,-69.26 0,-29.16 9.32,-52.25 27.95,-69.25 18.62,-17.02 44.96,-25.52 78.98,-25.52l806.79 0c34.02,0 61.96,10.53 83.83,31.59 21.87,21.07 32.81,46.18 32.81,75.33 0,30.78 -12.15,60.76 -36.45,89.91l-675.55 799.5 634.24 0z"/>
    <g>
     <path class="fil2" d="M4189.89 3306.09l35.64 178.75 43.47 -170.91 250.02 -848.9 87.75 0 246.8 848.9 42.65 172.53 38.07 -180.63 207.91 -840.81 99.9 0 -295.12 1151.85 -93.42 0 -261.1 -901.02 -29.16 -113.94 -28.62 113.94 -267.3 901.02 -93.15 0 -294.32 -1151.85 99.64 0 210.34 841.07zm1524.73 326.98c-72.9,0 -138.51,-17.82 -197.38,-53.73 -58.86,-35.91 -104.49,-85.86 -137.16,-150.12 -32.68,-64 -49.14,-135.82 -49.14,-215.46l0 -34.02c0,-82.36 15.93,-156.34 47.79,-222.49 31.86,-65.88 76.42,-117.72 133.39,-155.25 56.97,-37.81 118.53,-56.71 184.96,-56.71 103.94,0 186.3,35.37 247.32,106.39 61.02,71.01 91.26,167.94 91.26,291.07l0 52.92 -610.49 0 0 18.09c0,97.2 27.81,178.21 83.44,243.01 55.62,64.53 125.55,96.93 210.07,96.93 50.49,0 95.31,-9.17 133.92,-27.81 38.89,-18.63 73.99,-48.34 105.57,-89.11l59.41 45.1c-69.66,100.71 -170.65,151.2 -302.95,151.2zm-17.54 -806.79c-71.01,0 -130.96,26.19 -179.83,78.3 -48.87,52.11 -78.57,122.05 -89.1,210.07l513.56 0 0 -10.26c-2.71,-82.08 -26.19,-149.04 -70.47,-200.62 -44.28,-51.56 -102.34,-77.49 -174.15,-77.49zm1211.52 371.53c0,133.38 -29.43,239.49 -88.56,317.8 -59.13,78.3 -138.51,117.46 -238.15,117.46 -119.08,0 -209.25,-44.55 -270.55,-133.38l-3.78 117.18 -88.56 0 0 -1215.04 93.95 0 0 483.32c60.22,-93.15 149.32,-139.87 267.31,-139.87 101.26,0 181.44,38.61 240.31,115.84 58.59,77.49 88.02,184.96 88.02,322.39l0 14.31zm-94.77 -16.47c0,-112.86 -21.87,-199.81 -65.88,-261.38 -43.74,-61.29 -105.31,-92.07 -184.96,-92.07 -60.75,0 -112.06,14.86 -154.17,44.56 -42.39,29.97 -74.25,73.44 -95.86,130.95l0 385.84c47.52,107.47 131.22,161.2 251.65,161.2 78.03,0 139.05,-30.78 183.06,-92.61 44.01,-61.56 66.16,-153.91 66.16,-276.49z"/>
     <path class="fil1" d="M7533.95 3616.88l0 -1151.85 321.85 0c94.5,0 179.01,21.6 253.81,64.53 75.06,42.94 133.38,104.49 175.23,184.69 42.12,80.19 62.91,171.45 62.91,273.79l0 105.84c0,102.87 -20.79,194.14 -62.37,273.79 -41.59,79.66 -100.44,141.21 -176.05,184.42 -75.61,43.2 -162.54,64.8 -260.56,64.8l-314.83 0zm97.2 -1069.23l0 986.61 218.44 0c121.23,0 218.44,-40.23 291.88,-120.69 73.17,-80.46 109.89,-189.27 109.89,-326.44l0 -101.25c0,-132.31 -36.18,-238.43 -108.55,-318.07 -72.09,-79.66 -167.4,-119.61 -285.4,-120.15l-226.27 0zm1273.09 1085.43c-72.9,0 -138.51,-17.82 -197.38,-53.73 -58.86,-35.91 -104.49,-85.86 -137.16,-150.12 -32.68,-64 -49.14,-135.82 -49.14,-215.46l0 -34.02c0,-82.36 15.93,-156.34 47.79,-222.49 31.86,-65.88 76.42,-117.72 133.39,-155.25 56.97,-37.81 118.53,-56.71 184.96,-56.71 103.94,0 186.3,35.37 247.32,106.39 61.02,71.01 91.26,167.94 91.26,291.07l0 52.92 -610.49 0 0 18.09c0,97.2 27.81,178.21 83.44,243.01 55.62,64.53 125.55,96.93 210.07,96.93 50.49,0 95.31,-9.17 133.92,-27.81 38.89,-18.63 73.99,-48.34 105.57,-89.11l59.41 45.1c-69.66,100.71 -170.65,151.2 -302.95,151.2zm-17.54 -806.79c-71.01,0 -130.96,26.19 -179.83,78.3 -48.87,52.11 -78.57,122.05 -89.1,210.07l513.56 0 0 -10.26c-2.71,-82.08 -26.19,-149.04 -70.47,-200.62 -44.28,-51.56 -102.34,-77.49 -174.15,-77.49zm779.24 660.17l260.01 -724.97 97.48 0 -319.69 855.39 -76.69 0 -321.04 -855.39 97.2 0 262.72 724.97zm834.05 146.62c-72.9,0 -138.51,-17.82 -197.38,-53.73 -58.86,-35.91 -104.49,-85.86 -137.16,-150.12 -32.68,-64 -49.14,-135.82 -49.14,-215.46l0 -34.02c0,-82.36 15.93,-156.34 47.79,-222.49 31.86,-65.88 76.42,-117.72 133.39,-155.25 56.97,-37.81 118.53,-56.71 184.96,-56.71 103.94,0 186.3,35.37 247.32,106.39 61.02,71.01 91.26,167.94 91.26,291.07l0 52.92 -610.49 0 0 18.09c0,97.2 27.81,178.21 83.44,243.01 55.62,64.53 125.55,96.93 210.07,96.93 50.49,0 95.31,-9.17 133.92,-27.81 38.89,-18.63 73.99,-48.34 105.57,-89.11l59.41 45.1c-69.66,100.71 -170.65,151.2 -302.95,151.2zm-17.54 -806.79c-71.01,0 -130.96,26.19 -179.83,78.3 -48.87,52.11 -78.57,122.05 -89.1,210.07l513.56 0 0 -10.26c-2.71,-82.08 -26.19,-149.04 -70.47,-200.62 -44.28,-51.56 -102.34,-77.49 -174.15,-77.49zm628.85 790.59l-95.04 0 0 -1215.04 95.04 0 0 1215.04zm204.93 -440.39c0,-82.35 15.94,-156.33 47.8,-222.21 31.86,-66.15 76.95,-117.46 135.28,-153.9 58.32,-36.73 124.2,-55.09 198.18,-55.09 113.67,0 206.01,39.97 276.76,119.89 70.74,79.92 106.11,185.76 106.11,317.8l0 19.7c0,82.9 -16.2,157.15 -48.06,223.57 -31.86,66.16 -76.69,117.18 -134.74,153.1 -58.05,35.91 -124.21,53.73 -198.46,53.73 -113.4,0 -205.75,-39.96 -276.49,-119.88 -71.01,-79.92 -106.39,-185.77 -106.39,-317.81l0 -18.9zm94.78 26.46c0,102.34 26.45,186.58 79.65,252.19 52.92,65.61 122.31,98.55 208.45,98.55 85.32,0 154.45,-32.94 207.37,-98.55 53.19,-65.62 79.65,-152.29 79.65,-260.02l0 -18.09c0,-65.61 -12.15,-125.55 -36.44,-179.82 -24.31,-54.27 -58.33,-96.39 -102.07,-126.09 -43.73,-29.97 -93.69,-44.82 -150.12,-44.82 -84.52,0 -153.37,33.22 -206.55,99.36 -53.19,66.16 -79.92,152.83 -79.92,260.02l0 17.28zm1552.55 -5.13c0,133.38 -29.44,239.49 -88.57,317.8 -59.13,78.3 -138.24,117.46 -237.34,117.46 -116.92,0 -206.55,-41.05 -268.93,-123.39l0 436.06 -94.23 0 0 -1184.26 88.02 0 4.59 120.69c61.84,-91.26 151.21,-136.89 268.12,-136.89 102.34,0 182.8,38.89 240.85,116.38 58.33,77.49 87.49,184.96 87.49,322.66l0 13.5zm-94.78 -16.2c0,-109.09 -22.41,-195.49 -67.23,-258.67 -44.82,-63.45 -107.47,-95.04 -187.65,-95.04 -58.06,0 -107.74,14.04 -149.32,41.85 -41.85,28.08 -73.71,68.59 -95.86,122.05l0 410.68c22.69,49.14 55.09,86.67 97.2,112.32 42.39,25.91 92.08,38.88 149.59,38.88 79.65,0 141.75,-31.86 186.3,-95.31 44.55,-63.72 66.96,-155.79 66.96,-276.76zm636.41 451.46c-72.9,0 -138.51,-17.82 -197.38,-53.73 -58.86,-35.91 -104.49,-85.86 -137.16,-150.12 -32.68,-64 -49.14,-135.82 -49.14,-215.46l0 -34.02c0,-82.36 15.93,-156.34 47.79,-222.49 31.86,-65.88 76.42,-117.72 133.39,-155.25 56.97,-37.81 118.53,-56.71 184.96,-56.71 103.94,0 186.3,35.37 247.32,106.39 61.02,71.01 91.26,167.94 91.26,291.07l0 52.92 -610.49 0 0 18.09c0,97.2 27.81,178.21 83.44,243.01 55.62,64.53 125.55,96.93 210.07,96.93 50.49,0 95.31,-9.17 133.92,-27.81 38.89,-18.63 73.99,-48.34 105.57,-89.11l59.41 45.1c-69.66,100.71 -170.65,151.2 -302.95,151.2zm-17.54 -806.79c-71.01,0 -130.96,26.19 -179.83,78.3 -48.87,52.11 -78.57,122.05 -89.1,210.07l513.56 0 0 -10.26c-2.71,-82.08 -26.19,-149.04 -70.47,-200.62 -44.28,-51.56 -102.34,-77.49 -174.15,-77.49zm917.76 15.4c-19.98,-3.79 -41.31,-5.67 -63.99,-5.67 -59.14,0 -109.09,16.47 -149.86,49.41 -40.77,32.94 -69.93,80.74 -87.49,143.65l0 587.81 -93.95 0 0 -855.39 92.34 0 1.62 135.55c50.23,-101.26 130.68,-151.75 241.39,-151.75 26.46,0 47.26,3.51 62.38,10.26l-2.43 86.13z"/>
    </g>
   </g>
  </g>
 </g>
</svg>
